<svg id="Calque_1" data-name="Calque 1" xmlns="http://www.w3.org/2000/svg" viewBox="0 0 2024 2024"><defs><style>.cls-1{fill:#268a34;}.cls-2{fill:#cdd2da;}.cls-3{fill:#afb4c6;}.cls-4{fill:#707789;}.cls-5{fill:#ed2f49;}.cls-6{fill:#ebedee;}.cls-7{fill:#dde1e4;}.cls-8{fill:#9196aa;}.cls-9{fill:#f6573e;}.cls-10{fill:#828282;}.cls-11{fill:#757575;}.cls-12{fill:#fff;}.cls-13{fill:#ededed;}.cls-14{fill:#515151;}.cls-15,.cls-16{fill:none;}.cls-16{stroke:#000;stroke-linecap:round;stroke-linejoin:round;stroke-width:20px;}</style></defs><title>Plan de travail 1</title><path class="cls-1" d="M1620.26,475.7a100.92,100.92,0,0,1,0,141.95,99.22,99.22,0,0,1-141.67,0,100.92,100.92,0,0,1,0-141.95,99.22,99.22,0,0,1,141.67,0Zm.57,71v-.05c0-.7,0-1.4,0-2.1s0-1.37-.09-2.06c0,0,0,0,0,0,0-.73-.08-1.45-.15-2.16,0-.38-.06-.75-.11-1.12-.1-1.1-.24-2.18-.4-3.26-.07-.55-.16-1.08-.26-1.62s-.13-.8-.22-1.19-.09-.5-.14-.75c-.08-.45-.18-.91-.29-1.36s-.22-1-.34-1.49-.23-1-.37-1.46-.23-.87-.36-1.31-.21-.73-.32-1.09c-.22-.74-.45-1.46-.7-2.19-.36-1.09-.75-2.16-1.17-3.22s-.92-2.25-1.42-3.36c-.22-.5-.46-1-.7-1.5s-.44-.93-.67-1.38-.62-1.19-.94-1.79-.5-.91-.76-1.36a1.25,1.25,0,0,0-.08-.15c-.2-.35-.4-.69-.61-1s-.41-.7-.63-1-.57-.9-.85-1.34-.59-.91-.9-1.35a73.93,73.93,0,0,0-8.23-10.05,71.15,71.15,0,0,0-6.28-5.59c-.31-.25-.62-.49-.94-.74l-.76-.58a70.15,70.15,0,0,0-15.1-8.69c-.43-.19-.87-.37-1.31-.54s-1-.4-1.5-.58a69.45,69.45,0,0,0-56.73,3.17l-.48.25a72,72,0,0,0-38.71,58.54c0,.45-.07.9-.1,1.35,0,.16,0,.32,0,.49,0,.61-.06,1.23-.07,1.85s0,1.24,0,1.86,0,1.24,0,1.86,0,1.23.07,1.85c0,.17,0,.34,0,.51a72,72,0,0,0,40.29,60.62l.32.16a69.37,69.37,0,0,0,30.52,7.1,70.49,70.49,0,0,0,24.73-4.52l1.35-.52a70.14,70.14,0,0,0,16.79-9.41c.47-.33.93-.69,1.38-1.07s.76-.6,1.14-.92l.5-.41q2.55-2.13,4.9-4.47t4.28-4.8c.36-.42.7-.84,1-1.28s.67-.86,1-1.3.57-.77.86-1.16.4-.56.59-.84.49-.71.74-1.07c.41-.61.82-1.24,1.21-1.87.24-.37.47-.74.68-1.11s.59-1,.87-1.47c.58-1,1.13-2,1.64-3a69.78,69.78,0,0,0,4.6-11.3c.18-.56.35-1.12.5-1.7s.29-1,.42-1.54c.2-.74.38-1.49.54-2.25.12-.47.22-.93.31-1.41s.19-.93.27-1.41c.4-2.09.69-4.23.88-6.4,0-.4.07-.78.11-1.18s.07-1,.09-1.44a.47.47,0,0,0,0-.12c0-.66.07-1.32.08-2S1620.82,547.42,1620.82,546.73Z"/><path class="cls-1" d="M1888.44,448.78,1822.51,646h-19.91l-34.51-94.53c-11.22,32-23.84,64.8-33.94,94.53h-19.91l-65.93-197.2h29.46l46.84,141.66,32.26-91.73h22.72l32,91.46c15.43-46.85,32.54-96.78,47.13-141.38Z"/><path class="cls-2" d="M1620.82,546.67v.05c0,.69,0,1.37,0,2.07s0,1.32-.08,2a.47.47,0,0,1,0,.12h-12.82a4.21,4.21,0,0,1,0-8.42h12.82s0,0,0,0c0,.68.07,1.37.09,2.06S1620.82,546,1620.82,546.67Z"/><path class="cls-3" d="M1620.54,540.31c.07.72.12,1.44.15,2.16h-12.82a4.21,4.21,0,0,0,0,8.42h12.82c0,.49-.05,1-.09,1.44s-.06.78-.11,1.18c-.19,2.16-.49,4.3-.88,6.4-.08.48-.17.94-.27,1.41s-.2.94-.31,1.41c-.16.75-.34,1.51-.54,2.25-.13.52-.28,1-.42,1.54s-.33,1.14-.5,1.7a71.23,71.23,0,0,1-4.6,11.3c-.53,1-1.07,2-1.64,3-.29.49-.57,1-.87,1.47s-.45.75-.68,1.11c-.4.63-.8,1.26-1.21,1.87-.24.36-.49.72-.74,1.07s-.4.57-.59.84-.57.77-.86,1.16-.66.87-1,1.3-.68.85-1,1.28q-2.09,2.53-4.44,4.9t-4.74,4.37l-.5.41c-.38.31-.75.62-1.14.92s-.92.72-1.38,1.07a73.53,73.53,0,0,1-16.79,9.41l-1.35.52a70.72,70.72,0,0,1-20.41,4.23v-14a4.19,4.19,0,0,0-4.18-4.21h-.25v-2.35h.25c28.05,0,50.88-23,50.88-51.25a51.16,51.16,0,0,0-46.7-51.06V474.88a70.61,70.61,0,0,1,20.57,4.29l1.5.58c.44.17.88.35,1.31.54a73.27,73.27,0,0,1,15.1,8.69l.76.58.94.74a72.23,72.23,0,0,1,6.13,5.52,73.41,73.41,0,0,1,8.38,10.12l.9,1.35c.29.45.57.89.85,1.34s.43.69.63,1,.41.68.61,1a1.25,1.25,0,0,1,.08.15c.26.45.51.91.76,1.36s.64,1.19.94,1.79l.67,1.38c.24.49.48,1,.7,1.5.5,1.1,1,2.23,1.42,3.36s.81,2.13,1.17,3.22c.25.73.49,1.46.7,2.19.12.36.22.73.32,1.09s.25.87.36,1.31.25,1,.37,1.46.24,1,.34,1.49.21.91.29,1.36c.05.25.11.5.14.75s.15.79.22,1.19.18,1.08.26,1.62c.16,1.08.31,2.16.4,3.26Z"/><path class="cls-1" d="M1620.5,553.51c0-.4.08-.78.11-1.18C1620.57,552.73,1620.54,553.11,1620.5,553.51Z"/><path class="cls-1" d="M1619.35,561.31c.1-.47.19-.93.27-1.41C1619.54,560.38,1619.45,560.85,1619.35,561.31Z"/><path class="cls-1" d="M1619.55,533.12c0-.25-.09-.5-.14-.75C1619.46,532.62,1619.51,532.87,1619.55,533.12Z"/><path class="cls-1" d="M1619,562.72c.11-.47.21-.93.31-1.41C1619.26,561.79,1619.16,562.26,1619,562.72Z"/><path class="cls-1" d="M1618.08,566.51c.14-.51.29-1,.42-1.54C1618.37,565.49,1618.23,566,1618.08,566.51Z"/><path class="cls-1" d="M1617.58,568.21c.17-.56.34-1.12.5-1.7C1617.93,567.09,1617.76,567.66,1617.58,568.21Z"/><path class="cls-1" d="M1618.05,526.74c-.1-.36-.21-.73-.32-1.09C1617.85,526,1617.95,526.37,1618.05,526.74Z"/><path class="cls-1" d="M1617,523.46c-.36-1.09-.75-2.16-1.17-3.22C1616.28,521.31,1616.67,522.38,1617,523.46Z"/><path class="cls-1" d="M1613,579.51a71.23,71.23,0,0,0,4.6-11.3A69.78,69.78,0,0,1,1613,579.51Z"/><path class="cls-1" d="M1614.44,516.89c-.22-.5-.46-1-.7-1.5C1614,515.88,1614.22,516.39,1614.44,516.89Z"/><path class="cls-1" d="M1613.74,515.39l-.67-1.38C1613.3,514.46,1613.53,514.92,1613.74,515.39Z"/><path class="cls-1" d="M1611.34,582.55c.57-1,1.11-2,1.64-3C1612.47,580.54,1611.92,581.55,1611.34,582.55Z"/><path class="cls-1" d="M1612.13,512.22c-.25-.45-.5-.91-.76-1.36C1611.62,511.31,1611.88,511.76,1612.13,512.22Z"/><path class="cls-1" d="M1610.46,584c.3-.49.58-1,.87-1.47C1611.06,583,1610.77,583.54,1610.46,584Z"/><path class="cls-1" d="M1611.28,510.71c-.2-.35-.4-.69-.61-1C1610.88,510,1611.08,510.36,1611.28,510.71Z"/><path class="cls-1" d="M1609.78,585.13c.23-.37.46-.74.68-1.11C1610.25,584.4,1610,584.77,1609.78,585.13Z"/><path class="cls-1" d="M1607.83,588.07c.25-.35.49-.71.74-1.07C1608.33,587.36,1608.08,587.72,1607.83,588.07Z"/><path class="cls-1" d="M1593.52,603.25c.39-.3.76-.6,1.14-.92C1594.29,602.65,1593.91,603,1593.52,603.25Z"/><path class="cls-1" d="M1592.14,604.32c.47-.35.93-.71,1.38-1.07C1593.07,603.63,1592.61,604,1592.14,604.32Z"/><path class="cls-4" d="M1553.6,495.62a51.16,51.16,0,0,1,46.7,51.06c0,28.26-22.82,51.25-50.88,51.25h-.25V552.29h.25a12.16,12.16,0,0,0,4.18-.74v37.75a42.86,42.86,0,0,0,0-85.25Z"/><path class="cls-3" d="M1591.93,546.68a42.76,42.76,0,0,1-38.34,42.63V551.56a12.37,12.37,0,0,0-4.18-24h-.25V509.45h.25a4.19,4.19,0,0,0,4.18-4.21v-1.19A42.76,42.76,0,0,1,1591.93,546.68Zm-19.31,22.93a33,33,0,0,0-.44-46.29,4.15,4.15,0,0,0-5.91.05,4.24,4.24,0,0,0,.05,6,24.47,24.47,0,0,1,.33,34.38,4.24,4.24,0,0,0,.05,6,4.16,4.16,0,0,0,5.91-.05Z"/><path class="cls-1" d="M1577,480.29a70.15,70.15,0,0,1,15.1,8.69A73.27,73.27,0,0,0,1577,480.29Z"/><path class="cls-1" d="M1592.14,604.32a70.14,70.14,0,0,1-16.79,9.41A73.53,73.53,0,0,0,1592.14,604.32Z"/><path class="cls-2" d="M1572.18,523.32a33,33,0,0,1,.44,46.29,4.16,4.16,0,0,1-5.91.05,4.24,4.24,0,0,1-.05-6,24.47,24.47,0,0,0-.33-34.38,4.24,4.24,0,0,1-.05-6A4.15,4.15,0,0,1,1572.18,523.32Z"/><path class="cls-5" d="M1549.42,527.59a12.37,12.37,0,0,1,4.18,24v-3.48a4.19,4.19,0,0,0-4.18-4.2h-.25V527.59Z"/><path class="cls-2" d="M1553.6,604.49v14c-1.38.09-2.78.13-4.18.13h-.25V600.3l.25,0A4.19,4.19,0,0,1,1553.6,604.49Z"/><path class="cls-4" d="M1553.6,548.08v3.48a12.16,12.16,0,0,1-4.18.74h-.25v-8.4h.25A4.19,4.19,0,0,1,1553.6,548.08Z"/><path class="cls-2" d="M1553.6,504.06v1.19a4.19,4.19,0,0,1-4.18,4.21l-.25,0v-5.59h.25C1550.83,503.85,1552.22,503.93,1553.6,504.06Z"/><path class="cls-2" d="M1553.6,495.62v8.44c-1.37-.13-2.77-.21-4.18-.21h-.25v-8.42h.25C1550.83,495.44,1552.22,495.49,1553.6,495.62Z"/><path class="cls-2" d="M1553.6,474.88v20.74c-1.37-.13-2.77-.18-4.18-.18h-.25V474.76h.25C1550.82,474.75,1552.22,474.8,1553.6,474.88Z"/><path class="cls-6" d="M1549.42,474.75h-.25v20.68c-1.32,0-2.63.06-3.93.18V474.88C1546.64,474.8,1548,474.75,1549.42,474.75Z"/><path class="cls-6" d="M1549.42,509.46h-.25Z"/><path class="cls-6" d="M1549.42,600.28l-.25,0h.25Z"/><path class="cls-6" d="M1549.17,600.3v18.31c-1.31,0-2.61,0-3.93-.13v-14a4.2,4.2,0,0,1,3.93-4.2Z"/><path class="cls-7" d="M1549.17,597.93v2.35a4.2,4.2,0,0,0-3.93,4.2v14a70.35,70.35,0,0,1-26.49-6.81l-.32-.16a73.15,73.15,0,0,1-40.27-60.62H1491a4.21,4.21,0,0,0,0-8.42h-12.86c0-.45.05-.9.09-1.35A73.18,73.18,0,0,1,1517,482.59l.48-.25a70.45,70.45,0,0,1,27.81-7.46v20.74a51.15,51.15,0,0,0-46.69,51.06C1498.56,574.86,1521.24,597.8,1549.17,597.93Z"/><path class="cls-8" d="M1549.17,552.29v45.65c-27.93-.13-50.61-23.08-50.61-51.25a51.15,51.15,0,0,1,46.69-51.06v8.44a42.86,42.86,0,0,0,0,85.25V551.56A11.88,11.88,0,0,0,1549.17,552.29Z"/><path class="cls-8" d="M1549.17,543.89v8.4a11.88,11.88,0,0,1-3.93-.73v-3.48A4.2,4.2,0,0,1,1549.17,543.89Z"/><path class="cls-9" d="M1549.17,527.59v16.29a4.2,4.2,0,0,0-3.93,4.19v3.48a12.37,12.37,0,0,1,3.93-24Z"/><path class="cls-7" d="M1549.17,509.45v18.14a12.37,12.37,0,0,0-3.93,24v37.75a42.86,42.86,0,0,1,0-85.25v1.19A4.2,4.2,0,0,0,1549.17,509.45ZM1532.57,570a4.23,4.23,0,0,0-.05-6,24.47,24.47,0,0,1-.32-34.39,4.22,4.22,0,0,0-.06-5.95,4.14,4.14,0,0,0-5.9.05,33,33,0,0,0,.44,46.29,4.11,4.11,0,0,0,2.92,1.2A4.16,4.16,0,0,0,1532.57,570Z"/><path class="cls-6" d="M1549.17,509.44h0a4.2,4.2,0,0,1-3.93-4.2v-1.19c1.29-.13,2.6-.2,3.93-.21Z"/><path class="cls-6" d="M1549.17,495.44v8.42c-1.32,0-2.63.08-3.93.21v-8.44C1546.54,495.5,1547.85,495.45,1549.17,495.44Z"/><path class="cls-6" d="M1532.52,564a4.23,4.23,0,0,1,.05,6,4.16,4.16,0,0,1-3,1.26,4.11,4.11,0,0,1-2.92-1.2,33,33,0,0,1-.44-46.29,4.14,4.14,0,0,1,5.9-.05,4.22,4.22,0,0,1,.06,5.95A24.47,24.47,0,0,0,1532.52,564Z"/><path class="cls-1" d="M1517,482.59a73.18,73.18,0,0,0-38.71,58.54A72,72,0,0,1,1517,482.59Z"/><path class="cls-1" d="M1499.07,597.45a71.33,71.33,0,0,0,19.37,14.07,72,72,0,0,1-40.29-60.62h0A71.55,71.55,0,0,0,1499.07,597.45Z"/><path class="cls-6" d="M1491,542.48a4.21,4.21,0,0,1,0,8.42h-12.85a4.9,4.9,0,0,1,0-.51c0-.61-.06-1.23-.07-1.85s0-1.24,0-1.86,0-1.24,0-1.86,0-1.24.07-1.85a4.39,4.39,0,0,1,0-.49Z"/><path class="cls-1" d="M1478.25,541.13c0,.45-.07.9-.09,1.35h0C1478.18,542,1478.2,541.58,1478.25,541.13Z"/><path class="cls-1" d="M1478.13,550.38a4.9,4.9,0,0,0,0,.51h0C1478.14,550.72,1478.13,550.55,1478.13,550.38Z"/><path class="cls-1" d="M1478.16,542.48a4.39,4.39,0,0,0,0,.49c0-.16,0-.32,0-.49Z"/><path class="cls-1" d="M1478.13,543c0,.61-.06,1.23-.07,1.85C1478.07,544.19,1478.09,543.57,1478.13,543Z"/><path class="cls-1" d="M1478.06,548.53c0,.62,0,1.24.07,1.85C1478.09,549.76,1478.07,549.15,1478.06,548.53Z"/><path class="cls-1" d="M1336.66,448.78c64.24,0,96.5,49.09,96.5,98.18s-32.26,97.91-96.5,97.91h-70.42V448.78ZM1405.11,547c0-34.78-23-69.85-68.44-69.85h-42.08V616.53h42.08C1382.1,616.53,1405.11,581.75,1405.11,547Z"/><polygon class="cls-1" points="1237.93 448.49 1237.93 644.87 1215.48 644.87 1120.67 507.68 1120.67 644.87 1092.33 644.87 1092.33 448.21 1114.21 448.49 1209.88 586.79 1209.88 448.49 1237.93 448.49"/><polygon class="cls-1" points="1079.72 616.53 1079.72 644.87 978.44 644.87 978.44 616.53 1014.91 616.53 1014.91 476.82 978.44 476.82 978.44 448.78 1079.72 448.78 1079.72 476.82 1043.25 476.82 1043.25 616.53 1079.72 616.53"/><path class="cls-1" d="M972.44,350.72,873.56,646.55H843.68L791.92,504.74c-16.83,48-35.77,97.21-50.92,141.81H711.12L612.24,350.72h44.18l70.27,212.51,48.4-137.6h34.09l48,137.18c23.14-70.28,48.81-145.19,70.69-212.1Z"/><path class="cls-10" d="M621.17,640.65v4.21a3.59,3.59,0,0,1-3.59,3.59H508.73a3.59,3.59,0,0,1-3.59-3.59V448.78a3.59,3.59,0,0,1,3.59-3.59H617a3.59,3.59,0,0,1,3.59,3.59V453a3.59,3.59,0,0,1-3.59,3.59H516.81v84.27h98a3.59,3.59,0,0,1,3.59,3.59v4.48a3.59,3.59,0,0,1-3.59,3.59h-98v84.55H617.58A3.59,3.59,0,0,1,621.17,640.65Z"/><path class="cls-10" d="M240.54,640.46a3.51,3.51,0,0,0,1.94-.55l-1.51,4.3h-.75l-1.39-4.2A3.69,3.69,0,0,0,240.54,640.46Z"/><path class="cls-10" d="M393.51,639.64,392,644.22h-.75l-1.44-4a4.08,4.08,0,0,0,1.46.29A3.6,3.6,0,0,0,393.51,639.64Z"/><path class="cls-10" d="M496,348.62a3.6,3.6,0,0,0-2.91-1.49h-6.74a3.6,3.6,0,0,0-3.41,2.46l-91.79,276.2-67.2-190.41a3.58,3.58,0,0,0-3.39-2.4h-9.26a3.58,3.58,0,0,0-3.39,2.4l-67.2,190.4L149.3,349.59a3.6,3.6,0,0,0-3.41-2.46h-6.73a3.6,3.6,0,0,0-3.41,4.72l98.47,297.09a3.61,3.61,0,0,0,3.41,2.46h5.88a3.58,3.58,0,0,0,3.39-2.4l69-196.17L385.31,649a3.59,3.59,0,0,0,3.39,2.4h5.89a3.61,3.61,0,0,0,3.41-2.46l98.47-297.09A3.58,3.58,0,0,0,496,348.62ZM392,644.22h-.75l-1.44-4a4.08,4.08,0,0,0,1.46.29,3.6,3.6,0,0,0,2.25-.83Zm-151,0h-.75l-1.39-4.2a3.69,3.69,0,0,0,1.71.45,3.51,3.51,0,0,0,1.94-.55Z"/><rect class="cls-11" x="258.37" y="826.09" width="1082.8" height="812.11"/><rect class="cls-12" x="316.38" y="884.1" width="966.78" height="696.09"/><path class="cls-13" d="M316.38,884.1s767.07,133.23,966.78,696.09h27.42l-17.53-719.47H316.38Z"/><path class="cls-11" d="M1708.92,1403.94H1477V1060.36l31.38,31.38,169.25-.09V1184a12,12,0,0,1,10.88,12v38.68a12,12,0,0,1-10.88,11.95V1252a12,12,0,0,1,11.48,12v38.68a12,12,0,0,1-11.48,12v5.47a12,12,0,0,1,10.88,11.95v38.67a11.93,11.93,0,0,1-4.14,9Z"/><path class="cls-11" d="M1708.92,1060.36v343.57l-24.55-24.12a11.93,11.93,0,0,0,4.14-9V1332.1a12,12,0,0,0-10.88-11.95v-5.47a12,12,0,0,0,11.48-12V1264a12,12,0,0,0-11.48-12v-5.47a12,12,0,0,0,10.88-11.95v-38.68a12,12,0,0,0-10.88-12v-92.34l-169.25.09L1477,1060.36Z"/><polygon class="cls-10" points="1708.92 1060.37 1677.63 1091.65 1508.38 1091.74 1477 1060.37 1708.92 1060.37"/><path class="cls-14" d="M1708.92,1060.36v343.57l-24.55-24.12a11.93,11.93,0,0,0,4.14-9V1332.1a12,12,0,0,0-10.88-11.95v-5.47a12,12,0,0,0,11.48-12V1264a12,12,0,0,0-11.48-12v-5.47a12,12,0,0,0,10.88-11.95v-38.68a12,12,0,0,0-10.88-12v-92.34Z"/><rect class="cls-12" x="1520.41" y="1107.84" width="146.28" height="55.51"/><path class="cls-13" d="M1584,1107.84s62.89,12.25,70.7,55.51l12-22.23-2-28-58.15-5.32Z"/><polyline class="cls-14" points="1341.17 826.1 1283.16 884.11 1283.16 1580.19 1341.17 1638.2 1341.17 826.1"/><polyline class="cls-10" points="258.37 826.1 316.38 884.11 1283.16 884.11 1341.17 826.1 258.37 826.1"/><path d="M1360.5,787.43H239a19.34,19.34,0,0,0-19.35,19.33v850.78A19.34,19.34,0,0,0,239,1676.88H1360.5a19.33,19.33,0,0,0,19.34-19.33V806.77A19.33,19.33,0,0,0,1360.5,787.43Zm-19.33,850.77H258.37V826.09h1082.8Z"/><path class="cls-15" d="M258.37,826.09V1638.2h1082.8V826.09Zm1063.47,773.44a19.34,19.34,0,0,1-19.34,19.33H297a19.34,19.34,0,0,1-19.34-19.33V864.77A19.33,19.33,0,0,1,297,845.45H1302.5a19.33,19.33,0,0,1,19.34,19.33Z"/><path d="M1302.5,845.45H297a19.33,19.33,0,0,0-19.34,19.33v734.76A19.34,19.34,0,0,0,297,1618.86H1302.5a19.34,19.34,0,0,0,19.34-19.33V864.77A19.33,19.33,0,0,0,1302.5,845.45ZM316.38,1580.2V884.1h966.78V1580.2Z"/><path d="M1258.17,1063.8a19.33,19.33,0,0,1-27.34,27.33l-38.67-38.66a19.34,19.34,0,0,1,27.34-27.34Z"/><path d="M1219.49,1141.14a19.34,19.34,0,0,1-27.34,27.34L998.8,975.12a19.33,19.33,0,0,1,27.33-27.34Z"/><path d="M1180.82,986.45a19.34,19.34,0,0,1-27.34,27.34l-77.34-77.35a19.33,19.33,0,0,1,27.34-27.33Z"/><rect class="cls-16" x="1477" y="1060.37" width="231.92" height="343.57"/><rect class="cls-16" x="1520.41" y="1107.84" width="146.28" height="55.51" rx="12" ry="12"/><rect x="1503" y="1188.95" width="52.68" height="52.68" rx="12" ry="12"/><rect x="1503.6" y="1257.02" width="52.68" height="52.68" rx="12" ry="12"/><rect x="1503" y="1325.1" width="52.68" height="52.68" rx="12" ry="12"/><rect x="1566.92" y="1188.95" width="52.68" height="52.68" rx="12" ry="12"/><rect x="1567.51" y="1257.02" width="52.68" height="52.68" rx="12" ry="12"/><rect x="1566.92" y="1325.1" width="52.68" height="52.68" rx="12" ry="12"/><rect x="1630.84" y="1188.95" width="52.68" height="52.68" rx="12" ry="12"/><rect x="1631.43" y="1257.02" width="52.68" height="52.68" rx="12" ry="12"/><rect x="1630.84" y="1325.1" width="52.68" height="52.68" rx="12" ry="12"/><polyline class="cls-16" points="1593.85 1403.93 1593.85 1499.5 1491.99 1601.36 1366.13 1601.36"/><line class="cls-16" x1="1677.72" y1="1053.63" x2="1677.72" y2="948.79"/><circle cx="1677.72" cy="941.56" r="25.76"/><path class="cls-16" d="M1731.87,995.71a76.58,76.58,0,0,0,0-108.3"/><path class="cls-16" d="M1623.57,887.4a76.58,76.58,0,0,0,0,108.3"/><path class="cls-16" d="M1767.23,1031.06a126.58,126.58,0,0,0,0-179"/><path class="cls-16" d="M1588.21,852a126.58,126.58,0,0,0,0,179"/></svg>